<svg xmlns="http://www.w3.org/2000/svg" width="1120" height="620" viewBox="0 0 1120 620">
<rect width="100%" height="100%" fill="#ffffff"/>
<text x="80" y="32" font-family="Arial, sans-serif" font-size="20" font-weight="700">2026 PB Share Minus 2024 Top-Party Share by Region</text>
<rect x="80" y="54" width="1004" height="468" fill="#f8fafc" stroke="#cbd5e1"/>
<line x1="80" y1="235.43" x2="1084" y2="235.43" stroke="#334155"/>
<rect x="85.65" y="54.00" width="20.08" height="181.43" fill="#0f766e"/>
<text x="95.69" y="562" text-anchor="middle" font-family="Arial, sans-serif" font-size="11" transform="rotate(-45 95.69 562)">31</text>
<rect x="117.02" y="85.78" width="20.08" height="149.65" fill="#0f766e"/>
<text x="127.06" y="562" text-anchor="middle" font-family="Arial, sans-serif" font-size="11" transform="rotate(-45 127.06 562)">17</text>
<rect x="148.40" y="89.02" width="20.08" height="146.41" fill="#0f766e"/>
<text x="158.44" y="562" text-anchor="middle" font-family="Arial, sans-serif" font-size="11" transform="rotate(-45 158.44 562)">15</text>
<rect x="179.77" y="91.86" width="20.08" height="143.58" fill="#0f766e"/>
<text x="189.81" y="562" text-anchor="middle" font-family="Arial, sans-serif" font-size="11" transform="rotate(-45 189.81 562)">04</text>
<rect x="211.15" y="100.76" width="20.08" height="134.68" fill="#0f766e"/>
<text x="221.19" y="562" text-anchor="middle" font-family="Arial, sans-serif" font-size="11" transform="rotate(-45 221.19 562)">19</text>
<rect x="242.52" y="125.43" width="20.08" height="110.00" fill="#0f766e"/>
<text x="252.56" y="562" text-anchor="middle" font-family="Arial, sans-serif" font-size="11" transform="rotate(-45 252.56 562)">21</text>
<rect x="273.90" y="129.31" width="20.08" height="106.12" fill="#0f766e"/>
<text x="283.94" y="562" text-anchor="middle" font-family="Arial, sans-serif" font-size="11" transform="rotate(-45 283.94 562)">16</text>
<rect x="305.27" y="136.32" width="20.08" height="99.11" fill="#0f766e"/>
<text x="315.31" y="562" text-anchor="middle" font-family="Arial, sans-serif" font-size="11" transform="rotate(-45 315.31 562)">27</text>
<rect x="336.65" y="138.57" width="20.08" height="96.86" fill="#0f766e"/>
<text x="346.69" y="562" text-anchor="middle" font-family="Arial, sans-serif" font-size="11" transform="rotate(-45 346.69 562)">10</text>
<rect x="368.02" y="142.14" width="20.08" height="93.29" fill="#0f766e"/>
<text x="378.06" y="562" text-anchor="middle" font-family="Arial, sans-serif" font-size="11" transform="rotate(-45 378.06 562)">32</text>
<rect x="399.40" y="142.94" width="20.08" height="92.49" fill="#0f766e"/>
<text x="409.44" y="562" text-anchor="middle" font-family="Arial, sans-serif" font-size="11" transform="rotate(-45 409.44 562)">08</text>
<rect x="430.77" y="143.01" width="20.08" height="92.42" fill="#0f766e"/>
<text x="440.81" y="562" text-anchor="middle" font-family="Arial, sans-serif" font-size="11" transform="rotate(-45 440.81 562)">07</text>
<rect x="462.15" y="145.91" width="20.08" height="89.52" fill="#0f766e"/>
<text x="472.19" y="562" text-anchor="middle" font-family="Arial, sans-serif" font-size="11" transform="rotate(-45 472.19 562)">13</text>
<rect x="493.52" y="150.24" width="20.08" height="85.19" fill="#0f766e"/>
<text x="503.56" y="562" text-anchor="middle" font-family="Arial, sans-serif" font-size="11" transform="rotate(-45 503.56 562)">06</text>
<rect x="524.90" y="151.31" width="20.08" height="84.12" fill="#0f766e"/>
<text x="534.94" y="562" text-anchor="middle" font-family="Arial, sans-serif" font-size="11" transform="rotate(-45 534.94 562)">26</text>
<rect x="556.27" y="151.36" width="20.08" height="84.07" fill="#0f766e"/>
<text x="566.31" y="562" text-anchor="middle" font-family="Arial, sans-serif" font-size="11" transform="rotate(-45 566.31 562)">25</text>
<rect x="587.65" y="157.53" width="20.08" height="77.90" fill="#0f766e"/>
<text x="597.69" y="562" text-anchor="middle" font-family="Arial, sans-serif" font-size="11" transform="rotate(-45 597.69 562)">03</text>
<rect x="619.02" y="172.28" width="20.08" height="63.15" fill="#0f766e"/>
<text x="629.06" y="562" text-anchor="middle" font-family="Arial, sans-serif" font-size="11" transform="rotate(-45 629.06 562)">14</text>
<rect x="650.40" y="180.32" width="20.08" height="55.12" fill="#0f766e"/>
<text x="660.44" y="562" text-anchor="middle" font-family="Arial, sans-serif" font-size="11" transform="rotate(-45 660.44 562)">02</text>
<rect x="681.77" y="190.10" width="20.08" height="45.33" fill="#0f766e"/>
<text x="691.81" y="562" text-anchor="middle" font-family="Arial, sans-serif" font-size="11" transform="rotate(-45 691.81 562)">12</text>
<rect x="713.15" y="190.22" width="20.08" height="45.21" fill="#0f766e"/>
<text x="723.19" y="562" text-anchor="middle" font-family="Arial, sans-serif" font-size="11" transform="rotate(-45 723.19 562)">11</text>
<rect x="744.52" y="193.43" width="20.08" height="42.01" fill="#0f766e"/>
<text x="754.56" y="562" text-anchor="middle" font-family="Arial, sans-serif" font-size="11" transform="rotate(-45 754.56 562)">29</text>
<rect x="775.90" y="199.45" width="20.08" height="35.99" fill="#0f766e"/>
<text x="785.94" y="562" text-anchor="middle" font-family="Arial, sans-serif" font-size="11" transform="rotate(-45 785.94 562)">05</text>
<rect x="807.27" y="211.80" width="20.08" height="23.63" fill="#0f766e"/>
<text x="817.31" y="562" text-anchor="middle" font-family="Arial, sans-serif" font-size="11" transform="rotate(-45 817.31 562)">22</text>
<rect x="838.65" y="226.66" width="20.08" height="8.77" fill="#0f766e"/>
<text x="848.69" y="562" text-anchor="middle" font-family="Arial, sans-serif" font-size="11" transform="rotate(-45 848.69 562)">24</text>
<rect x="870.02" y="234.20" width="20.08" height="1.23" fill="#0f766e"/>
<text x="880.06" y="562" text-anchor="middle" font-family="Arial, sans-serif" font-size="11" transform="rotate(-45 880.06 562)">20</text>
<rect x="901.40" y="235.43" width="20.08" height="8.67" fill="#dc2626"/>
<text x="911.44" y="562" text-anchor="middle" font-family="Arial, sans-serif" font-size="11" transform="rotate(-45 911.44 562)">30</text>
<rect x="932.77" y="235.43" width="20.08" height="22.67" fill="#dc2626"/>
<text x="942.81" y="562" text-anchor="middle" font-family="Arial, sans-serif" font-size="11" transform="rotate(-45 942.81 562)">23</text>
<rect x="964.15" y="235.43" width="20.08" height="23.17" fill="#dc2626"/>
<text x="974.19" y="562" text-anchor="middle" font-family="Arial, sans-serif" font-size="11" transform="rotate(-45 974.19 562)">28</text>
<rect x="995.52" y="235.43" width="20.08" height="62.71" fill="#dc2626"/>
<text x="1005.56" y="562" text-anchor="middle" font-family="Arial, sans-serif" font-size="11" transform="rotate(-45 1005.56 562)">01</text>
<rect x="1026.90" y="235.43" width="20.08" height="69.84" fill="#dc2626"/>
<text x="1036.94" y="562" text-anchor="middle" font-family="Arial, sans-serif" font-size="11" transform="rotate(-45 1036.94 562)">18</text>
<rect x="1058.27" y="235.43" width="20.08" height="286.57" fill="#dc2626"/>
<text x="1068.31" y="562" text-anchor="middle" font-family="Arial, sans-serif" font-size="11" transform="rotate(-45 1068.31 562)">09</text>
<line x1="80" y1="522.00" x2="1084" y2="522.00" stroke="#e2e8f0"/>
<text x="70" y="526.00" text-anchor="end" font-family="Arial, sans-serif" font-size="12">-40%</text>
<line x1="80" y1="428.40" x2="1084" y2="428.40" stroke="#e2e8f0"/>
<text x="70" y="432.40" text-anchor="end" font-family="Arial, sans-serif" font-size="12">-27%</text>
<line x1="80" y1="334.80" x2="1084" y2="334.80" stroke="#e2e8f0"/>
<text x="70" y="338.80" text-anchor="end" font-family="Arial, sans-serif" font-size="12">-14%</text>
<line x1="80" y1="241.20" x2="1084" y2="241.20" stroke="#e2e8f0"/>
<text x="70" y="245.20" text-anchor="end" font-family="Arial, sans-serif" font-size="12">-1%</text>
<line x1="80" y1="147.60" x2="1084" y2="147.60" stroke="#e2e8f0"/>
<text x="70" y="151.60" text-anchor="end" font-family="Arial, sans-serif" font-size="12">12%</text>
<line x1="80" y1="54.00" x2="1084" y2="54.00" stroke="#e2e8f0"/>
<text x="70" y="58.00" text-anchor="end" font-family="Arial, sans-serif" font-size="12">26%</text>
</svg>