<svg xmlns="http://www.w3.org/2000/svg" width="1180" height="620" viewBox="0 0 1180 620">
<rect width="100%" height="100%" fill="#ffffff"/>
<text x="72" y="32" font-family="Arial, sans-serif" font-size="20" font-weight="700">Strong Matched-Control Leads by Municipality</text>
<rect x="72" y="52" width="1068" height="442" fill="#f8fafc" stroke="#cbd5e1"/>
<rect x="79.12" y="52.00" width="30.26" height="442.00" fill="#0f766e"/>
<text x="94.25" y="46.00" text-anchor="middle" font-family="Arial, sans-serif" font-size="11">21</text>
<text x="94.25" y="544" text-anchor="middle" font-family="Arial, sans-serif" font-size="11" transform="rotate(-45 94.25 544)">23/46</text>
<rect x="123.62" y="157.24" width="30.26" height="336.76" fill="#0f766e"/>
<text x="138.75" y="151.24" text-anchor="middle" font-family="Arial, sans-serif" font-size="11">16</text>
<text x="138.75" y="544" text-anchor="middle" font-family="Arial, sans-serif" font-size="11" transform="rotate(-45 138.75 544)">24/46</text>
<rect x="168.12" y="304.57" width="30.26" height="189.43" fill="#0f766e"/>
<text x="183.25" y="298.57" text-anchor="middle" font-family="Arial, sans-serif" font-size="11">9</text>
<text x="183.25" y="544" text-anchor="middle" font-family="Arial, sans-serif" font-size="11" transform="rotate(-45 183.25 544)">09/14</text>
<rect x="212.62" y="304.57" width="30.26" height="189.43" fill="#0f766e"/>
<text x="227.75" y="298.57" text-anchor="middle" font-family="Arial, sans-serif" font-size="11">9</text>
<text x="227.75" y="544" text-anchor="middle" font-family="Arial, sans-serif" font-size="11" transform="rotate(-45 227.75 544)">09/16</text>
<rect x="257.12" y="304.57" width="30.26" height="189.43" fill="#0f766e"/>
<text x="272.25" y="298.57" text-anchor="middle" font-family="Arial, sans-serif" font-size="11">9</text>
<text x="272.25" y="544" text-anchor="middle" font-family="Arial, sans-serif" font-size="11" transform="rotate(-45 272.25 544)">25/46</text>
<rect x="301.62" y="346.67" width="30.26" height="147.33" fill="#0f766e"/>
<text x="316.75" y="340.67" text-anchor="middle" font-family="Arial, sans-serif" font-size="11">7</text>
<text x="316.75" y="544" text-anchor="middle" font-family="Arial, sans-serif" font-size="11" transform="rotate(-45 316.75 544)">16/22</text>
<rect x="346.12" y="409.81" width="30.26" height="84.19" fill="#0f766e"/>
<text x="361.25" y="403.81" text-anchor="middle" font-family="Arial, sans-serif" font-size="11">4</text>
<text x="361.25" y="544" text-anchor="middle" font-family="Arial, sans-serif" font-size="11" transform="rotate(-45 361.25 544)">03/06</text>
<rect x="390.62" y="409.81" width="30.26" height="84.19" fill="#0f766e"/>
<text x="405.75" y="403.81" text-anchor="middle" font-family="Arial, sans-serif" font-size="11">4</text>
<text x="405.75" y="544" text-anchor="middle" font-family="Arial, sans-serif" font-size="11" transform="rotate(-45 405.75 544)">29/34</text>
<rect x="435.12" y="430.86" width="30.26" height="63.14" fill="#0f766e"/>
<text x="450.25" y="424.86" text-anchor="middle" font-family="Arial, sans-serif" font-size="11">3</text>
<text x="450.25" y="544" text-anchor="middle" font-family="Arial, sans-serif" font-size="11" transform="rotate(-45 450.25 544)">01/33</text>
<rect x="479.62" y="430.86" width="30.26" height="63.14" fill="#0f766e"/>
<text x="494.75" y="424.86" text-anchor="middle" font-family="Arial, sans-serif" font-size="11">3</text>
<text x="494.75" y="544" text-anchor="middle" font-family="Arial, sans-serif" font-size="11" transform="rotate(-45 494.75 544)">09/15</text>
<rect x="524.12" y="430.86" width="30.26" height="63.14" fill="#0f766e"/>
<text x="539.25" y="424.86" text-anchor="middle" font-family="Arial, sans-serif" font-size="11">3</text>
<text x="539.25" y="544" text-anchor="middle" font-family="Arial, sans-serif" font-size="11" transform="rotate(-45 539.25 544)">08/27</text>
<rect x="568.62" y="430.86" width="30.26" height="63.14" fill="#0f766e"/>
<text x="583.75" y="424.86" text-anchor="middle" font-family="Arial, sans-serif" font-size="11">3</text>
<text x="583.75" y="544" text-anchor="middle" font-family="Arial, sans-serif" font-size="11" transform="rotate(-45 583.75 544)">02/04</text>
<rect x="613.12" y="430.86" width="30.26" height="63.14" fill="#0f766e"/>
<text x="628.25" y="424.86" text-anchor="middle" font-family="Arial, sans-serif" font-size="11">3</text>
<text x="628.25" y="544" text-anchor="middle" font-family="Arial, sans-serif" font-size="11" transform="rotate(-45 628.25 544)">17/01</text>
<rect x="657.62" y="430.86" width="30.26" height="63.14" fill="#0f766e"/>
<text x="672.75" y="424.86" text-anchor="middle" font-family="Arial, sans-serif" font-size="11">3</text>
<text x="672.75" y="544" text-anchor="middle" font-family="Arial, sans-serif" font-size="11" transform="rotate(-45 672.75 544)">21/11</text>
<rect x="702.12" y="430.86" width="30.26" height="63.14" fill="#0f766e"/>
<text x="717.25" y="424.86" text-anchor="middle" font-family="Arial, sans-serif" font-size="11">3</text>
<text x="717.25" y="544" text-anchor="middle" font-family="Arial, sans-serif" font-size="11" transform="rotate(-45 717.25 544)">13/19</text>
<rect x="746.62" y="430.86" width="30.26" height="63.14" fill="#0f766e"/>
<text x="761.75" y="424.86" text-anchor="middle" font-family="Arial, sans-serif" font-size="11">3</text>
<text x="761.75" y="544" text-anchor="middle" font-family="Arial, sans-serif" font-size="11" transform="rotate(-45 761.75 544)">30/30</text>
<rect x="791.12" y="451.90" width="30.26" height="42.10" fill="#0f766e"/>
<text x="806.25" y="445.90" text-anchor="middle" font-family="Arial, sans-serif" font-size="11">2</text>
<text x="806.25" y="544" text-anchor="middle" font-family="Arial, sans-serif" font-size="11" transform="rotate(-45 806.25 544)">18/14</text>
<rect x="835.62" y="451.90" width="30.26" height="42.10" fill="#0f766e"/>
<text x="850.75" y="445.90" text-anchor="middle" font-family="Arial, sans-serif" font-size="11">2</text>
<text x="850.75" y="544" text-anchor="middle" font-family="Arial, sans-serif" font-size="11" transform="rotate(-45 850.75 544)">20/10</text>
<rect x="880.12" y="451.90" width="30.26" height="42.10" fill="#0f766e"/>
<text x="895.25" y="445.90" text-anchor="middle" font-family="Arial, sans-serif" font-size="11">2</text>
<text x="895.25" y="544" text-anchor="middle" font-family="Arial, sans-serif" font-size="11" transform="rotate(-45 895.25 544)">09/02</text>
<rect x="924.62" y="451.90" width="30.26" height="42.10" fill="#0f766e"/>
<text x="939.75" y="445.90" text-anchor="middle" font-family="Arial, sans-serif" font-size="11">2</text>
<text x="939.75" y="544" text-anchor="middle" font-family="Arial, sans-serif" font-size="11" transform="rotate(-45 939.75 544)">17/25</text>
<rect x="969.12" y="451.90" width="30.26" height="42.10" fill="#0f766e"/>
<text x="984.25" y="445.90" text-anchor="middle" font-family="Arial, sans-serif" font-size="11">2</text>
<text x="984.25" y="544" text-anchor="middle" font-family="Arial, sans-serif" font-size="11" transform="rotate(-45 984.25 544)">01/37</text>
<rect x="1013.62" y="451.90" width="30.26" height="42.10" fill="#0f766e"/>
<text x="1028.75" y="445.90" text-anchor="middle" font-family="Arial, sans-serif" font-size="11">2</text>
<text x="1028.75" y="544" text-anchor="middle" font-family="Arial, sans-serif" font-size="11" transform="rotate(-45 1028.75 544)">09/21</text>
<rect x="1058.12" y="451.90" width="30.26" height="42.10" fill="#0f766e"/>
<text x="1073.25" y="445.90" text-anchor="middle" font-family="Arial, sans-serif" font-size="11">2</text>
<text x="1073.25" y="544" text-anchor="middle" font-family="Arial, sans-serif" font-size="11" transform="rotate(-45 1073.25 544)">15/37</text>
<rect x="1102.62" y="451.90" width="30.26" height="42.10" fill="#0f766e"/>
<text x="1117.75" y="445.90" text-anchor="middle" font-family="Arial, sans-serif" font-size="11">2</text>
<text x="1117.75" y="544" text-anchor="middle" font-family="Arial, sans-serif" font-size="11" transform="rotate(-45 1117.75 544)">02/18</text>
<line x1="72" y1="494.00" x2="1140" y2="494.00" stroke="#e2e8f0"/>
<text x="62" y="498.00" text-anchor="end" font-family="Arial, sans-serif" font-size="12">0</text>
<line x1="72" y1="405.60" x2="1140" y2="405.60" stroke="#e2e8f0"/>
<text x="62" y="409.60" text-anchor="end" font-family="Arial, sans-serif" font-size="12">4</text>
<line x1="72" y1="317.20" x2="1140" y2="317.20" stroke="#e2e8f0"/>
<text x="62" y="321.20" text-anchor="end" font-family="Arial, sans-serif" font-size="12">8</text>
<line x1="72" y1="228.80" x2="1140" y2="228.80" stroke="#e2e8f0"/>
<text x="62" y="232.80" text-anchor="end" font-family="Arial, sans-serif" font-size="12">13</text>
<line x1="72" y1="140.40" x2="1140" y2="140.40" stroke="#e2e8f0"/>
<text x="62" y="144.40" text-anchor="end" font-family="Arial, sans-serif" font-size="12">17</text>
<line x1="72" y1="52.00" x2="1140" y2="52.00" stroke="#e2e8f0"/>
<text x="62" y="56.00" text-anchor="end" font-family="Arial, sans-serif" font-size="12">21</text>
</svg>