<svg xmlns="http://www.w3.org/2000/svg" width="1120" height="620" viewBox="0 0 1120 620">
<rect width="100%" height="100%" fill="#ffffff"/>
<text x="72" y="30" font-family="Arial, sans-serif" font-size="20" font-weight="700">Progressive Bulgaria Share by Region</text>
<rect x="72" y="48" width="1010" height="480" fill="#f8fafc" stroke="#cbd5e1"/>
<line x1="72" y1="528.00" x2="1082" y2="528.00" stroke="#475569" stroke-width="1.2"/>
<rect x="77.05" y="48.00" width="21.46" height="480.00" fill="#2563eb"/>
<text x="87.78" y="564" text-anchor="middle" font-family="Arial, sans-serif" font-size="11" transform="rotate(-45 87.78 564)">31</text>
<rect x="108.61" y="52.92" width="21.46" height="475.08" fill="#2563eb"/>
<text x="119.34" y="564" text-anchor="middle" font-family="Arial, sans-serif" font-size="11" transform="rotate(-45 119.34 564)">17</text>
<rect x="140.18" y="59.95" width="21.46" height="468.05" fill="#2563eb"/>
<text x="150.91" y="564" text-anchor="middle" font-family="Arial, sans-serif" font-size="11" transform="rotate(-45 150.91 564)">06</text>
<rect x="171.74" y="66.95" width="21.46" height="461.05" fill="#2563eb"/>
<text x="182.47" y="564" text-anchor="middle" font-family="Arial, sans-serif" font-size="11" transform="rotate(-45 182.47 564)">04</text>
<rect x="203.30" y="73.85" width="21.46" height="454.15" fill="#2563eb"/>
<text x="214.03" y="564" text-anchor="middle" font-family="Arial, sans-serif" font-size="11" transform="rotate(-45 214.03 564)">21</text>
<rect x="234.86" y="75.17" width="21.46" height="452.83" fill="#2563eb"/>
<text x="245.59" y="564" text-anchor="middle" font-family="Arial, sans-serif" font-size="11" transform="rotate(-45 245.59 564)">15</text>
<rect x="266.43" y="81.38" width="21.46" height="446.62" fill="#2563eb"/>
<text x="277.16" y="564" text-anchor="middle" font-family="Arial, sans-serif" font-size="11" transform="rotate(-45 277.16 564)">13</text>
<rect x="297.99" y="91.35" width="21.46" height="436.65" fill="#2563eb"/>
<text x="308.72" y="564" text-anchor="middle" font-family="Arial, sans-serif" font-size="11" transform="rotate(-45 308.72 564)">08</text>
<rect x="329.55" y="93.44" width="21.46" height="434.56" fill="#2563eb"/>
<text x="340.28" y="564" text-anchor="middle" font-family="Arial, sans-serif" font-size="11" transform="rotate(-45 340.28 564)">29</text>
<rect x="361.11" y="96.43" width="21.46" height="431.57" fill="#2563eb"/>
<text x="371.84" y="564" text-anchor="middle" font-family="Arial, sans-serif" font-size="11" transform="rotate(-45 371.84 564)">27</text>
<rect x="392.68" y="97.26" width="21.46" height="430.74" fill="#2563eb"/>
<text x="403.41" y="564" text-anchor="middle" font-family="Arial, sans-serif" font-size="11" transform="rotate(-45 403.41 564)">19</text>
<rect x="424.24" y="98.77" width="21.46" height="429.23" fill="#2563eb"/>
<text x="434.97" y="564" text-anchor="middle" font-family="Arial, sans-serif" font-size="11" transform="rotate(-45 434.97 564)">26</text>
<rect x="455.80" y="99.87" width="21.46" height="428.13" fill="#2563eb"/>
<text x="466.53" y="564" text-anchor="middle" font-family="Arial, sans-serif" font-size="11" transform="rotate(-45 466.53 564)">22</text>
<rect x="487.36" y="105.01" width="21.46" height="422.99" fill="#2563eb"/>
<text x="498.09" y="564" text-anchor="middle" font-family="Arial, sans-serif" font-size="11" transform="rotate(-45 498.09 564)">14</text>
<rect x="518.92" y="106.50" width="21.46" height="421.50" fill="#2563eb"/>
<text x="529.66" y="564" text-anchor="middle" font-family="Arial, sans-serif" font-size="11" transform="rotate(-45 529.66 564)">10</text>
<rect x="550.49" y="110.16" width="21.46" height="417.84" fill="#2563eb"/>
<text x="561.22" y="564" text-anchor="middle" font-family="Arial, sans-serif" font-size="11" transform="rotate(-45 561.22 564)">07</text>
<rect x="582.05" y="113.79" width="21.46" height="414.21" fill="#2563eb"/>
<text x="592.78" y="564" text-anchor="middle" font-family="Arial, sans-serif" font-size="11" transform="rotate(-45 592.78 564)">02</text>
<rect x="613.61" y="115.10" width="21.46" height="412.90" fill="#2563eb"/>
<text x="624.34" y="564" text-anchor="middle" font-family="Arial, sans-serif" font-size="11" transform="rotate(-45 624.34 564)">12</text>
<rect x="645.17" y="120.93" width="21.46" height="407.07" fill="#2563eb"/>
<text x="655.91" y="564" text-anchor="middle" font-family="Arial, sans-serif" font-size="11" transform="rotate(-45 655.91 564)">11</text>
<rect x="676.74" y="123.79" width="21.46" height="404.21" fill="#2563eb"/>
<text x="687.47" y="564" text-anchor="middle" font-family="Arial, sans-serif" font-size="11" transform="rotate(-45 687.47 564)">16</text>
<rect x="708.30" y="133.84" width="21.46" height="394.16" fill="#2563eb"/>
<text x="719.03" y="564" text-anchor="middle" font-family="Arial, sans-serif" font-size="11" transform="rotate(-45 719.03 564)">03</text>
<rect x="739.86" y="141.84" width="21.46" height="386.16" fill="#2563eb"/>
<text x="750.59" y="564" text-anchor="middle" font-family="Arial, sans-serif" font-size="11" transform="rotate(-45 750.59 564)">20</text>
<rect x="771.42" y="144.44" width="21.46" height="383.56" fill="#2563eb"/>
<text x="782.16" y="564" text-anchor="middle" font-family="Arial, sans-serif" font-size="11" transform="rotate(-45 782.16 564)">05</text>
<rect x="802.99" y="161.27" width="21.46" height="366.73" fill="#2563eb"/>
<text x="813.72" y="564" text-anchor="middle" font-family="Arial, sans-serif" font-size="11" transform="rotate(-45 813.72 564)">30</text>
<rect x="834.55" y="161.35" width="21.46" height="366.65" fill="#2563eb"/>
<text x="845.28" y="564" text-anchor="middle" font-family="Arial, sans-serif" font-size="11" transform="rotate(-45 845.28 564)">25</text>
<rect x="866.11" y="176.90" width="21.46" height="351.10" fill="#2563eb"/>
<text x="876.84" y="564" text-anchor="middle" font-family="Arial, sans-serif" font-size="11" transform="rotate(-45 876.84 564)">28</text>
<rect x="897.67" y="180.04" width="21.46" height="347.96" fill="#2563eb"/>
<text x="908.41" y="564" text-anchor="middle" font-family="Arial, sans-serif" font-size="11" transform="rotate(-45 908.41 564)">01</text>
<rect x="929.24" y="190.75" width="21.46" height="337.25" fill="#2563eb"/>
<text x="939.97" y="564" text-anchor="middle" font-family="Arial, sans-serif" font-size="11" transform="rotate(-45 939.97 564)">18</text>
<rect x="960.80" y="195.75" width="21.46" height="332.25" fill="#2563eb"/>
<text x="971.53" y="564" text-anchor="middle" font-family="Arial, sans-serif" font-size="11" transform="rotate(-45 971.53 564)">32</text>
<rect x="992.36" y="221.81" width="21.46" height="306.19" fill="#2563eb"/>
<text x="1003.09" y="564" text-anchor="middle" font-family="Arial, sans-serif" font-size="11" transform="rotate(-45 1003.09 564)">24</text>
<rect x="1023.92" y="243.55" width="21.46" height="284.45" fill="#2563eb"/>
<text x="1034.66" y="564" text-anchor="middle" font-family="Arial, sans-serif" font-size="11" transform="rotate(-45 1034.66 564)">23</text>
<rect x="1055.49" y="315.51" width="21.46" height="212.49" fill="#2563eb"/>
<text x="1066.22" y="564" text-anchor="middle" font-family="Arial, sans-serif" font-size="11" transform="rotate(-45 1066.22 564)">09</text>
<line x1="72" y1="528.00" x2="1082" y2="528.00" stroke="#e2e8f0"/>
<text x="62" y="532.00" text-anchor="end" font-family="Arial, sans-serif" font-size="12">0%</text>
<line x1="72" y1="432.00" x2="1082" y2="432.00" stroke="#e2e8f0"/>
<text x="62" y="436.00" text-anchor="end" font-family="Arial, sans-serif" font-size="12">11%</text>
<line x1="72" y1="336.00" x2="1082" y2="336.00" stroke="#e2e8f0"/>
<text x="62" y="340.00" text-anchor="end" font-family="Arial, sans-serif" font-size="12">22%</text>
<line x1="72" y1="240.00" x2="1082" y2="240.00" stroke="#e2e8f0"/>
<text x="62" y="244.00" text-anchor="end" font-family="Arial, sans-serif" font-size="12">33%</text>
<line x1="72" y1="144.00" x2="1082" y2="144.00" stroke="#e2e8f0"/>
<text x="62" y="148.00" text-anchor="end" font-family="Arial, sans-serif" font-size="12">44%</text>
<line x1="72" y1="48.00" x2="1082" y2="48.00" stroke="#e2e8f0"/>
<text x="62" y="52.00" text-anchor="end" font-family="Arial, sans-serif" font-size="12">55%</text>
</svg>